<?xml version="1.0" encoding="utf-8"?>
<!-- Generator: Adobe Illustrator 27.1.0, SVG Export Plug-In . SVG Version: 6.00 Build 0)  -->
<svg version="1.1" id="Livello_1" xmlns="http://www.w3.org/2000/svg" xmlns:xlink="http://www.w3.org/1999/xlink" x="0px" y="0px"
	 viewBox="0 0 841.9 595.3" style="enable-background:new 0 0 841.9 595.3;" xml:space="preserve">
<style type="text/css">
	.st0{fill:#FFFFFF;}
</style>
<g>
	<g>
		<path class="st0" d="M491.4,319.7c0,3.6,2.9,6.5,6.5,6.5h39.9V317h-35.8v-12.3h34.3v-8.3h-34.3v-11.1h35.6v-9.2H498
			c-3.6,0-6.5,2.9-6.5,6.5V319.7z"/>
		<path class="st0" d="M595.2,293.4v-11.6c0-3.2-2.6-5.7-5.7-5.7h-39c-3.2,0-5.7,2.6-5.7,5.7v39c0,3.2,2.6,5.7,5.7,5.7h39
			c3.2,0,5.7-2.6,5.7-5.7V307h-10.5v8.9h-29.5v-29.5h29.5v6.9H595.2z"/>
		<path class="st0" d="M314.1,316.7v9.6h10.7v-11.4c0-3.5-1.6-7.7-6.6-8.6c-2.1-0.4-5.2-0.9-5.2-0.9s1-0.1,3.9-0.4
			c2.9-0.3,5.6-1.9,6.6-3.2h0c1.3-1.7,1.8-5,1.8-10.5c0-5.7-1.2-9.5-3.6-11.7c-2.4-2.2-6.6-3.3-12.8-3.3h-36.2v50h10.7v-16.4h24.1
			C311.9,309.9,314.1,312,314.1,316.7z M283.3,300.7v-15.2H308c3.5,0,4.8,0.7,5.3,1.3c0.5,0.6,1.2,2.2,1.2,6.2
			c0,3.2-0.5,5.3-1.4,6.3c-0.9,1-2.8,1.5-5.7,1.5H283.3z"/>
		<path class="st0" d="M333.5,282.7v37c0,3.6,2.9,6.5,6.5,6.5h39.9V317h-35.8v-12.3h34.3v-8.3h-34.3v-11.1h35.6v-9.2H340
			C336.4,276.2,333.5,279.1,333.5,282.7z"/>
		<path class="st0" d="M431.7,297.1h-33.3v-11.6h34.5v-9.2h-39.4c-3.2,0-5.8,2.6-5.8,5.8v44.3h10.7v-20h33.3V297.1z"/>
		<path class="st0" d="M446.8,326.3h38.4v-9.7h-34.3v-40.3h-10.7v43.4C440.1,323.3,443.1,326.3,446.8,326.3z"/>
		<polygon class="st0" points="649.7,276.2 601.3,276.2 601.3,285.9 619.9,285.9 619.9,326.3 630.6,326.3 630.6,285.9 649.7,285.9 
					"/>
		<rect x="656.3" y="276.2" class="st0" width="10.7" height="50"/>
		<path class="st0" d="M678.1,324.7c2.8,2.1,16,3,24,3c8,0,18.4-0.8,21.4-3.1c2.8-2.1,4.2-6.5,4.2-13.5c0-5.7-1.2-9.4-3.6-11.3
			c-2.3-1.8-7.2-2.9-14.9-3.3c-1.5-0.1-3.6-0.2-5.8-0.3l-0.3,0c-7.2-0.3-14.4-0.7-16.2-1l-0.5-0.1l-0.3-0.4
			c-0.4-0.6-0.9-1.8-0.9-4.6c0-2.3,0.5-3.8,1.6-4.5l0.2-0.1c1.5-0.6,8.8-1.1,14-1.1c3.9,0,10.9,0.3,12.7,0.8l0.3,0.1l0.2,0.3
			c0.6,0.7,1.1,2.2,1.2,4.4c0,0.3,0,0.7,0.1,1.1l0.1,0.7h10.7v-2.7c0-5.4-1.4-9.1-4.3-11.1c-3.1-2.1-15.6-3-21.6-3
			c-4.1,0-8.9,0.3-12.9,0.8c-4.8,0.6-7.9,1.5-9.2,2.4c-2.9,2.1-4.3,6.1-4.3,12.3c0,6,1.2,9.9,3.6,11.8c2.4,1.9,7.4,2.2,15.6,2.7
			l17.1,1.1c2.7,0.2,4.5,0.6,5.3,1.2c0.5,0.4,1.1,1.5,1.1,4.2c0,2.8-0.4,4.6-1.3,5.5l-0.2,0.2l-0.2,0.1c-1.5,0.6-7.7,1.1-12.2,1.1
			c-6.1,0-14.6-0.4-16.4-1l-0.3-0.1l-0.2-0.2c-0.5-0.6-1.2-2-1.2-5.5l-0.1-1.8h-10.8l0.1,2.6C673.9,318.6,675.2,322.6,678.1,324.7z"
			/>
	</g>
	<g>
		<g>
			<g>
				<g>
					<path class="st0" d="M233,234.2l-55.8-0.1c-4.7,0-9.3,1.9-12.6,5.3l-23.1,23.5l-23.1,23c-3.3,3.3-5.2,7.8-5.2,12.5V353
						l29.1-28.7v-51c0-5.5,4.5-10,10-10l51.4,0L233,234.2z"/>
				</g>
			</g>
			<g>
				<g>
					<path class="st0" d="M121.5,361l55.8,0.1c4.7,0,9.3-1.9,12.6-5.3l23.1-23.5l23.1-23c3.3-3.3,5.2-7.8,5.2-12.5v-54.6L212.1,271
						v51c0,5.5-4.5,10-10,10l-51.4,0L121.5,361z"/>
				</g>
			</g>
		</g>
	</g>
</g>
</svg>
